# xmcd CD database file
#
# Track frame offsets:
#	150
#	14565
#	30737
#	45573
#	64599
#	85046
#	96667
#	108827
#	125017
#	140655
#	156293
#	174110
#
# Disc length: 3655 seconds
#
# Revision: 0
# Processed by: cddbd v1.5.1PL2 Copyright (c) Steve Scherf et al.
# Submitted via: CDex 1.60beta1
#
DISCID=9c0e450c
DTITLE=Various Artist - モノごころ、モノむすめ。特典CD
DYEAR=2005
DGENRE=Soundtrack
TTITLE0=May-Be SOFT - Happy Sunny Girls
TTITLE1=May-Be SOFT - Horizon of autumn
TTITLE2=May-Be SOFT - Shade of a Pine tree
TTITLE3=May-Be SOFT - Morning Delight
TTITLE4=May-Be SOFT - 夢見るピローケース
TTITLE5=May-Be SOFT - ゆるゆるいきましょ！
TTITLE6=May-Be SOFT - 突撃！モノ娘。
TTITLE7=May-Be SOFT - 風に舞う想い
TTITLE8=井上みゆ - MO!NO! (フルコーラス ver.)
TTITLE9=May-Be SOFT - MO!NO! (カラオケ ver.)
TTITLE10=井上みゆ - MO!NO! (ショート ver.)
TTITLE11=DataTrack
EXTD=YEAR: 2005
EXTT0=
EXTT1=
EXTT2=
EXTT3=
EXTT4=
EXTT5=
EXTT6=
EXTT7=
EXTT8=
EXTT9=
EXTT10=
EXTT11=
PLAYORDER=
